<svg xmlns="http://www.w3.org/2000/svg" xmlns:xlink="http://www.w3.org/1999/xlink" width="100" zoomAndPan="magnify" viewBox="0 0 75 74.999997" height="100" preserveAspectRatio="xMidYMid meet" version="1.0"><defs><clipPath id="700f137edb"><path d="M 0 18.613281 L 75 18.613281 L 75 56.09375 L 0 56.09375 Z M 0 18.613281 " clip-rule="nonzero"/></clipPath></defs><rect x="-7.5" width="90" fill="#ffffff" y="-7.5" height="89.999996" fill-opacity="1"/><g clip-path="url(#700f137edb)"><path fill="#de5d01" d="M 70.820312 49.058594 C 69.46875 47.382812 68.070312 45.742188 66.71875 44.0625 C 64.882812 41.839844 63.070312 39.601562 61.21875 37.390625 C 58.757812 34.402344 56.300781 31.410156 53.847656 28.414062 C 51.671875 25.765625 49.527344 23.09375 47.34375 20.457031 C 46.621094 20.332031 45.871094 20.320312 45.140625 20.238281 C 39.105469 19.679688 33.0625 19.207031 27.027344 18.617188 C 22.328125 24.875 17.613281 31.125 12.894531 37.371094 C 8.59375 43.066406 4.289062 48.757812 -0.03125 54.4375 C 0.847656 54.285156 1.730469 54.21875 2.621094 54.230469 C 4.414062 54.300781 6.207031 54.40625 7.996094 54.488281 C 15.246094 54.882812 22.492188 55.238281 29.738281 55.621094 C 35.125 55.867188 45.894531 56.414062 45.894531 56.414062 L 74.910156 54.046875 C 74.910156 54.046875 72.175781 50.726562 70.820312 49.058594 Z M 18.03125 50.289062 C 17.042969 50.261719 16.0625 50.160156 15.078125 50.160156 C 15.472656 49.578125 15.792969 48.953125 16.160156 48.355469 C 19.644531 42.480469 23.109375 36.59375 26.554688 30.699219 C 26.753906 30.390625 26.921875 30.0625 27.054688 29.71875 C 27.203125 30.09375 27.328125 30.472656 27.429688 30.859375 C 29.253906 36.820312 31.105469 42.769531 32.992188 48.710938 C 33.21875 49.503906 33.519531 50.273438 33.722656 51.070312 C 28.492188 50.816406 23.261719 50.539062 18.03125 50.289062 Z M 32.59375 34.558594 C 31.101562 31.851562 29.558594 29.171875 28.105469 26.445312 C 27.417969 27.136719 26.828125 27.921875 26.191406 28.660156 C 21.222656 34.527344 16.226562 40.363281 11.199219 46.175781 C 10.691406 46.742188 10.234375 47.359375 9.675781 47.878906 C 10.085938 47.386719 10.40625 46.824219 10.769531 46.296875 C 15.121094 40.097656 19.449219 33.878906 23.835938 27.699219 C 25.082031 25.898438 26.375 24.121094 27.601562 22.304688 C 27.863281 22.964844 28.203125 23.589844 28.507812 24.234375 C 30.003906 27.390625 31.484375 30.554688 32.984375 33.710938 C 34.613281 37.140625 36.199219 40.59375 37.886719 43.996094 C 36.101562 40.863281 34.371094 37.699219 32.59375 34.558594 Z M 56.9375 42.738281 C 56.085938 42.738281 55.242188 42.800781 54.390625 42.820312 C 53.691406 41.324219 52.976562 39.832031 52.296875 38.328125 C 52.132812 37.996094 51.96875 37.574219 51.558594 37.5 C 50.96875 37.347656 50.464844 37.972656 50.539062 38.523438 C 50.679688 40.003906 50.933594 41.476562 51.078125 42.957031 C 50.558594 43.015625 50.035156 43 49.511719 43.015625 C 48.71875 43.019531 47.929688 43.109375 47.136719 43.109375 C 47.445312 41.648438 47.621094 40.164062 47.863281 38.691406 C 48.039062 37.570312 48.226562 36.453125 48.378906 35.328125 C 48.4375 34.863281 48.632812 34.464844 48.964844 34.132812 C 49.292969 33.796875 49.6875 33.597656 50.152344 33.53125 C 50.550781 33.492188 50.933594 33.546875 51.304688 33.699219 C 51.675781 33.851562 51.988281 34.082031 52.242188 34.390625 C 53.332031 35.65625 54.394531 36.941406 55.464844 38.226562 C 56.703125 39.703125 57.960938 41.171875 59.171875 42.671875 C 58.425781 42.644531 57.683594 42.746094 56.9375 42.738281 Z M 56.9375 42.738281 " fill-opacity="1" fill-rule="nonzero"/></g></svg>