<svg xmlns="http://www.w3.org/2000/svg" xmlns:xlink="http://www.w3.org/1999/xlink" width="50" zoomAndPan="magnify" viewBox="0 0 37.5 37.499999" height="50" preserveAspectRatio="xMidYMid meet" version="1.0"><defs><clipPath id="f8f3c155f0"><path d="M 0 0 L 37.007812 0 L 37.007812 37.007812 L 0 37.007812 Z M 0 0 " clip-rule="nonzero"/></clipPath><clipPath id="c579e8bf75"><path d="M 0 6.121094 L 37 6.121094 L 37 30.546875 L 0 30.546875 Z M 0 6.121094 " clip-rule="nonzero"/></clipPath></defs><g clip-path="url(#f8f3c155f0)"><path fill="#ffffff" d="M 0 0 L 37.007812 0 L 37.007812 37.007812 L 0 37.007812 Z M 0 0 " fill-opacity="1" fill-rule="nonzero"/></g><g clip-path="url(#c579e8bf75)"><path fill="#de5d01" d="M 36.34375 25.308594 C 35.828125 24.964844 35.132812 25.105469 34.792969 25.621094 L 33.378906 27.753906 L 19.433594 6.605469 C 19.226562 6.289062 18.875 6.101562 18.496094 6.101562 C 18.121094 6.101562 17.769531 6.289062 17.5625 6.605469 L 3.617188 27.75 L 2.207031 25.621094 C 1.863281 25.105469 1.167969 24.964844 0.652344 25.308594 C 0.136719 25.652344 -0.00390625 26.347656 0.339844 26.859375 L 2.6875 30.398438 C 2.691406 30.402344 2.691406 30.40625 2.695312 30.410156 C 2.90625 30.71875 3.257812 30.902344 3.625 30.898438 L 33.371094 30.898438 C 33.371094 30.898438 33.375 30.898438 33.375 30.898438 C 33.375 30.898438 33.378906 30.898438 33.378906 30.898438 C 33.761719 30.898438 34.109375 30.699219 34.308594 30.398438 L 36.660156 26.859375 C 37 26.347656 36.859375 25.652344 36.34375 25.308594 Z M 18.496094 28.660156 L 18.496094 9.253906 L 18.5 9.257812 C 18.539062 10.9375 19.242188 22.28125 31.058594 28.660156 Z M 18.496094 28.660156 " fill-opacity="1" fill-rule="nonzero"/></g></svg>